<svg xml:space="preserve" style="enable-background:new 0 0 1024 1024;" viewBox="0 0 1024 1024" y="0px" x="0px" xmlns:xlink="http://www.w3.org/1999/xlink" xmlns="http://www.w3.org/2000/svg" id="图层_1" version="1.1">
<style type="text/css">
	.st0{fill:#C3AAFD;}
	.st1{fill:#FF9F8E;}
	.st2{fill:#B87C7E;}
	.st3{fill:#FCF8F7;}
	.st4{fill:#F5575D;}
	.st5{fill:#152140;}
	.st6{opacity:0.4;fill:#FFFFFF;stroke:#0F0F0F;stroke-width:6;stroke-miterlimit:10;}
	.st7{fill:#FFFFFF;}
	.st8{fill:#FF8777;}
	.st9{fill:#DD5543;}
	.st10{fill:url(#SVGID_1_);}
</style>
<g>
	<path d="M1024.5,512.44c0,136.76-53.58,261.13-141.02,352.94l-0.22,0.22c-14.18,14.97-29.26,29.03-45.23,42.15
		c-5.32,4.37-10.7,8.58-16.08,12.72c-0.84,0.62-1.63,1.18-2.35,1.79c-0.79,0.62-1.63,1.18-2.36,1.74c-1.79,1.29-3.59,2.58-5.32,3.87
		c-13.28,9.7-27.13,18.72-41.42,27.02c-8.86,5.16-17.82,10.03-27.01,14.63c-1.85,1.01-3.7,1.91-5.6,2.8
		c-52.29,25.73-109.74,42.77-170.33,49.21c-13.28,1.46-26.74,2.35-40.3,2.75c-0.95,0.06-2.02,0.06-3.03,0.06
		c-1.06,0.06-2.13,0.06-3.08,0.06c-1.85,0.06-3.7,0.11-5.5,0.06c-0.22,0.06-0.45,0.06-0.67,0.06h-5.6c-1.18,0-2.47,0-3.76-0.06
		c-3.25,0-6.61-0.11-9.81-0.22c-1.06,0-2.18-0.06-3.25-0.11c-0.96-0.06-2.02-0.11-3.03-0.17c-0.84,0-1.68-0.05-2.47-0.11
		c-7.12-0.34-14.18-0.79-21.19-1.46c-2.07-0.17-4.09-0.39-6.17-0.62c-61.43-6.16-119.55-23.37-172.57-49.49
		c-1.85-0.84-3.76-1.79-5.6-2.75c-0.34-0.17-0.67-0.34-0.96-0.5c-7.85-3.98-15.53-8.13-23.09-12.5
		c-16.03-9.19-31.45-19.34-46.24-30.21c-1.12-0.78-2.13-1.57-3.25-2.41c-0.84-0.56-1.63-1.12-2.35-1.74
		c-0.84-0.56-1.52-1.18-2.36-1.79c-22.03-16.59-42.6-34.97-61.65-54.98c-6.44-6.78-12.67-13.68-18.66-20.8
		C46.57,755.24,0.5,639.22,0.5,512.44C0.5,229.68,229.74,0.5,512.5,0.5C795.32,0.5,1024.5,229.68,1024.5,512.44z" class="st0"></path>
</g>
<path d="M883.26,865.6c-14.18,14.97-29.26,29.03-45.23,42.15c-5.32,4.37-10.7,8.58-16.08,12.72
	c-0.84,0.62-1.63,1.18-2.35,1.79c-0.79,0.62-1.63,1.18-2.36,1.74c-1.79,1.29-3.59,2.58-5.32,3.87
	c-13.28,9.7-27.13,18.72-41.42,27.02c-8.86,5.16-17.82,10.03-27.01,14.63c-1.85,1.01-3.7,1.91-5.6,2.8
	c-7.51,3.7-15.13,7.23-22.87,10.54c-46.02,19.84-95.56,33.18-147.46,38.67c-1.51,0.17-2.97,0.34-4.49,0.45
	c-11.83,1.18-23.76,1.96-35.81,2.3c-0.95,0.06-2.02,0.06-3.03,0.06c-1.06,0.06-2.13,0.06-3.08,0.06c-1.85,0.06-3.7,0.11-5.5,0.06
	c-0.22,0.06-0.45,0.06-0.67,0.06h-5.6c-1.18,0-2.47,0-3.76-0.06c-3.25,0-6.61-0.11-9.81-0.22c-1.06,0-2.18-0.06-3.25-0.11
	c-0.96-0.06-2.02-0.11-3.03-0.17c-0.84,0-1.68-0.05-2.47-0.11c-6.34-0.28-12.67-0.67-18.89-1.29c-0.79,0-1.51-0.11-2.3-0.17
	c-2.07-0.17-4.09-0.39-6.17-0.62c-61.43-6.16-119.55-23.37-172.57-49.49c-1.85-0.84-3.76-1.79-5.6-2.75
	c-0.34-0.17-0.67-0.34-0.96-0.5c-5.88-2.97-11.66-6.05-17.32-9.25c-1.96-1.07-3.87-2.13-5.77-3.25
	c-16.03-9.19-31.45-19.34-46.24-30.21c-1.12-0.78-2.13-1.57-3.25-2.41c-0.84-0.56-1.63-1.12-2.35-1.74
	c-0.84-0.56-1.52-1.18-2.36-1.79c-22.03-16.59-42.6-34.97-61.65-54.98c-6.44-6.78-12.67-13.68-18.66-20.8
	c4.93-3.25,9.19-5.66,12.1-7.23c26.46-14.29,42.82-10.54,97.19-19.62c25.56-4.2,37.27-7.62,55.93-11.83
	c2.52-0.62,5.21-1.18,8.02-1.79c22.19-4.76,52.91-10.31,96.35-15.81c8.24-1.07,16.98-2.07,26.23-3.14c12-1.35,24.77-2.69,38.51-4.04
	c0,0,0,0,0.05,0c18.27-1.74,38.06-3.48,59.64-5.16c8.69,0.62,38.62,2.8,77.85,6.78h0.05c0.84,0.11,1.68,0.22,2.52,0.28
	c12.95,1.35,26.9,2.91,41.42,4.65c26.57,3.2,54.98,7.06,82.67,11.71c33.35,5.55,65.57,12.22,92.14,20.06
	c21.86,6.45,52.29,17.32,69.05,45.18C882.87,864.99,883.09,865.27,883.26,865.6z" class="st1"></path>
<path d="M468.17,1022.54c-0.79,0-1.51-0.11-2.3-0.17c-2.07-0.17-4.09-0.39-6.17-0.62
	c-61.43-6.16-119.55-23.37-172.57-49.49c-1.85-0.84-3.76-1.79-5.6-2.75c-0.34-0.17-0.67-0.34-0.96-0.5
	c-5.88-2.97-11.66-6.05-17.32-9.25c3.25-8.63,6.39-17.71,9.3-27.13c14.91-48.54,20.01-92.26,21.24-126.33
	c2.52-0.62,5.21-1.18,8.02-1.85c22.19-4.88,52.91-10.54,96.35-16.14c2.8,22.08,7.12,49.6,14.18,80.93
	c11.6,51.45,20.85,92.37,46.02,137.15C461.16,1011.33,464.41,1016.77,468.17,1022.54z" class="st2"></path>
<path d="M280.57,969.01c-7.85-3.98-15.53-8.13-23.09-12.5c3.31-8.63,6.5-17.66,9.47-27.07
	c14.91-47.47,20.01-90.18,21.24-123.53c2.52-0.62,5.21-1.18,8.02-1.79c22.19-4.76,52.91-10.31,96.35-15.81
	c2.8,21.58,7.12,48.54,14.18,79.14c11.6,50.33,20.85,90.35,46.02,134.12c3.59,6.28,7.96,13.23,13.11,20.79
	c-2.07-0.17-4.09-0.39-6.17-0.62c-61.43-6.16-119.55-23.37-172.57-49.49c-1.85-0.84-3.76-1.79-5.6-2.75
	C281.19,969.35,280.85,969.18,280.57,969.01z" class="st3"></path>
<path d="M764.89,957.02c-8.86,5.21-17.82,10.15-27.01,14.8c-1.85,1.01-3.7,1.96-5.6,2.86
	c-5.66,2.86-11.43,5.6-17.26,8.18c-46.02,19.84-95.56,33.18-147.46,38.67c-1.51,0.17-2.97,0.34-4.49,0.45
	c14.35-31.16,28.31-66.31,40.41-105.15c14.63-46.91,23.88-90.52,29.76-129.14c26.57,3.25,54.98,7.17,82.67,11.88
	c15.13,69.67,30.38,113.83,42.71,142.59C760.23,945.92,762.42,950.97,764.89,957.02z" class="st2"></path>
<g>
	<path d="M597.61,669.94v107.33c0,49.47-40.11,89.58-89.58,89.58h0c-49.47,0-89.58-40.11-89.58-89.58V669.94H597.61z" class="st1"></path>
</g>
<g>
	<path d="M597.61,674.33v107.19c-58.88,28-127.12,15.03-179.16-22.38v-84.81H597.61z" class="st4"></path>
</g>
<path d="M665.55,238.31c15.54-1.36,45.81-1.57,72.53,16.74c36.14,24.76,43.37,68.06,49.59,105.38
	c11.17,66.98-2.67,128.02-6.2,142.57c-10.6,43.77-24.16,64.99-16.12,101.66c1.35,6.18,10.31,47,32.23,49.59
	c10.64,1.26,20.21-6.97,25.42-12.4c-1.25,5.34-4.01,14.04-10.54,22.94c-8.06,10.99-17.74,16.65-22.94,19.22
	c-1.69,4.09-8.77,19.9-26.66,28.52c-22.67,10.92-44.15,1.37-47.11,0c-4.69,1.14-26.78,6.02-45.25-6.82
	c-21.29-14.8-29.33-47.28-16.12-77.48C658.11,498.24,661.83,368.28,665.55,238.31z" class="st5"></path>
<path d="M389.7,238.31c-12.28-2.38-32.06-4.36-53.93,2.48c-38.18,11.94-57.81,42.96-73.77,68.19
	c-11.77,18.6-34.03,53.8-34.71,101.04c-0.6,41.7,15.77,81.87,35.95,131.42c4.86,11.93,14.19,33.74,16.12,63.85
	c1.11,17.3,2.4,42.81-13.64,55.79c-9.72,7.86-25.81,11.14-30.99,4.96c-4.7-5.6-0.88-19.5,11.16-32.85
	c-4.19,0.07-13.14,0.85-20.46,7.13c-13.75,11.81-16.61,38.71-1.24,51.14c9.78,7.91,24.96,8.36,37.81,1.24
	c-3.67,3.36-9.2,7.6-16.74,10.85c-13.54,5.83-25.86,5.12-31.92,4.34c1.58,3.07,5.79,10.13,14.26,14.26
	c16.5,8.04,33.21-2.81,34.09-3.41c2.71,1.52,11.74,6.16,23.25,4.03c7.22-1.34,12.29-4.76,14.88-6.82c2.33,3.25,5.79,6.98,10.85,9.3
	c22.24,10.2,56.55-15.43,71.9-36.26c33.04-44.82,7.71-107.25,4.96-113.75C388.25,462.91,388.97,350.61,389.7,238.31z" class="st5"></path>
<path d="M664.62,339.35c10.31,16.51,12.28,51.83,15.81,121.81c4.14,82.21,6,123.85-4.65,149.7
	C643,690.44,560.47,719.06,553.04,721.51c-15.75,5.19-36.81,12.14-64.16,9.3c-69.02-7.17-121.15-70.78-139.47-128.32
	c-9.4-29.49-7.01-61.6-1.86-124.6c4.34-53.13,11.16-98.22,17.41-132.59c2-11,7.99-20.82,16.9-27.59
	c15.94-12.11,37.99-25.53,66.11-34.15C523.36,260.44,625.65,276.94,664.62,339.35z" class="st1"></path>
<path d="M680.42,504.39c10.98-15.26,26.99-41.4,35.8-77.18c4.1-16.66,16.8-76.64-12.09-140.4
	c-10.49-23.15-30.29-66.86-71.13-76.25c-5.92-1.36-11.53-1.83-16.62-1.78c-9.01,0.08-16.36,7.29-17.08,16.27
	c-1.94,24.15-3.88,48.3-5.81,72.45c8.52,26.51,20.89,38.34,31.15,44.17c9.82,5.58,25.94,10.35,38.12,26.96c0,0,2.17,2.96,4.18,6.51
	C681.42,400.64,680.59,491.02,680.42,504.39z" class="st5"></path>
<path d="M601.85,283.09c-4.11,6.79-17.53,26.42-59.51,40.91c-62.26,21.5-129.01,11.54-159,5.58
	c-11.52,26.19-23.75,61.03-30.69,103.21c-4.83,29.37-6.03,55.83-5.58,78.11c-11.96-17.66-33-53.94-37.66-104.14
	c-1.6-17.22-6.83-84.91,39.05-146.45c5.12-6.87,71.19-92.56,170.62-81.83c34.25,3.7,60.9,17.59,78.02,29.12
	c8.63,5.81,14.48,14.94,15.82,25.25c0.53,4.09,0.78,8.62,0.53,13.51C613.4,247.83,612.3,265.86,601.85,283.09z" class="st5"></path>
<ellipse ry="39.83" rx="26.55" cy="518.06" cx="326.35" class="st1" transform="matrix(0.9959 -0.0905 0.0905 0.9959 -45.5367 31.6542)"></ellipse>
<path d="M342.25,535.27c-0.17-9.28-2.71-18.99-8.97-26.07c-1.52-1.71-3.08-3.38-5.04-4.79
	c-1.89-1.4-4.51-2.33-6.95-1.75c-4.93,1.32-7.25,6.04-8.31,10.2c1.43-4.07,4.42-8.26,8.55-8.82c4.16-0.43,7.08,3.49,9.55,6.9
	c4.96,6.97,6.28,15.79,5.57,24.16c-0.13,1.54,1.01,2.9,2.56,3.03s2.9-1.01,3.04-2.56C342.25,535.48,342.25,535.36,342.25,535.27z" class="st5"></path>
<ellipse ry="26.55" rx="39.83" cy="518.06" cx="696.27" class="st1" transform="matrix(0.0905 -0.9959 0.9959 0.0905 117.3341 1164.6038)"></ellipse>
<path d="M680.38,535.27c0.17-9.28,2.71-18.99,8.97-26.07c1.52-1.71,3.08-3.38,5.04-4.79c1.89-1.4,4.51-2.33,6.95-1.75
	c4.93,1.32,7.25,6.04,8.31,10.2c-1.43-4.07-4.42-8.26-8.55-8.82c-4.16-0.43-7.08,3.49-9.55,6.9c-4.96,6.97-6.28,15.79-5.57,24.16
	c0.13,1.54-1.01,2.9-2.56,3.03c-1.54,0.13-2.9-1.01-3.04-2.56C680.38,535.48,680.38,535.36,680.38,535.27z" class="st5"></path>
<path d="M770.49,954.89c-8.86,5.16-17.82,10.03-27.01,14.63c-1.85,1.01-3.7,1.91-5.6,2.8
	c-52.29,25.73-109.74,42.77-170.33,49.21c14.74-31.44,29.09-66.92,41.53-106.32c14.63-46.3,23.88-89.4,29.76-127.51
	c26.57,3.2,54.98,7.06,82.67,11.71c15.13,68.83,30.38,112.43,42.71,140.79C765.84,943.96,768.02,948.89,770.49,954.89z" class="st3"></path>
<ellipse ry="48.42" rx="65.23" cy="484.89" cx="448.04" class="st6" transform="matrix(0.1081 -0.9941 0.9941 0.1081 -82.4314 877.9111)"></ellipse>
<g>
	
		<ellipse ry="15.14" rx="15.22" cy="520.62" cx="441.05" class="st5" transform="matrix(0.2249 -0.9744 0.9744 0.2249 -165.4322 833.2726)"></ellipse>
	
		<ellipse ry="4.12" rx="4.14" cy="516.34" cx="449.18" class="st7" transform="matrix(0.2249 -0.9744 0.9744 0.2249 -154.9613 837.8826)"></ellipse>
</g>
<ellipse ry="68.86" rx="51.11" cy="473.75" cx="590.38" class="st6" transform="matrix(0.98 -0.1992 0.1992 0.98 -82.5298 127.0803)"></ellipse>
<g>
	
		<ellipse ry="15.14" rx="15.22" cy="510.9" cx="582.68" class="st5" transform="matrix(0.2249 -0.9744 0.9744 0.2249 -46.1795 963.7465)"></ellipse>
	
		<ellipse ry="4.12" rx="4.14" cy="506.62" cx="590.82" class="st7" transform="matrix(0.2249 -0.9744 0.9744 0.2249 -35.7086 968.3564)"></ellipse>
</g>
<path d="M541.21,398.71c-0.78-9.59,14.72-19,24.7-24.92c16.69-9.9,28.02-16.63,44.79-17.15
	c4.73-0.15,25.55-0.79,35.79,10.91c4.57,5.22,5.31,10.92,5.33,14.35c-3.24-2.94-11.73-9.73-25.33-11.21
	c-11.76-1.28-21.37,2.07-27.73,4.37c-17.78,6.41-37.34,20.57-42.34,24.2c-2.82,2.04-8.31,6.13-11.92,5
	C541.59,403.34,541.28,399.49,541.21,398.71z" class="st5"></path>
<path d="M485.98,403.43c-0.27-9.62-13.03-17.14-21.23-21.85c-13.72-7.88-23.03-13.23-35.96-11.78
	c-3.65,0.41-19.69,2.21-26.5,15.03c-3.04,5.72-3.08,11.47-2.79,14.88c2.22-3.3,8.13-11.04,18.44-14.1c8.92-2.65,16.6-0.45,21.7,1.08
	c14.23,4.28,30.54,16.05,34.71,19.06c2.35,1.7,6.94,5.11,9.61,3.56C486.11,408.07,486,404.21,485.98,403.43z" class="st5"></path>
<g>
	<path d="M493.47,698.4c1.1,1.6,10.32,14.54,26.58,15.35c13.87,0.69,27.19-7.73,33.4-21.26
		c-0.67,4.09-3.2,16.16-13.65,23.76c-14.43,10.51-38.35,8.38-45.09-3.64C493.42,710.3,491.75,705.83,493.47,698.4z" class="st5"></path>
</g>
<ellipse ry="12.49" rx="34.1" cy="538.15" cx="611.21" class="st8" transform="matrix(0.9154 -0.4025 0.4025 0.9154 -164.9038 291.5157)"></ellipse>
<ellipse ry="29.31" rx="10.74" cy="546.02" cx="435.18" class="st8" transform="matrix(0.3627 -0.9319 0.9319 0.3627 -231.4967 753.5233)"></ellipse>
<g>
	<path d="M538.52,663.64c-0.22,4.71-0.78,14.57-8.52,20.63c-3.75,2.97-8.58,4.43-13.85,4.43
		c-1.06,0-2.19-0.06-3.31-0.17c-3.25-0.39-6.22-1.96-8.41-4.37c-1.06-1.12-1.91-2.41-2.58-3.81c-0.22-0.5-0.39-1.01-0.62-1.51
		c-3.31-7.96-5.21-17.49-5.21-27.74c0-11.77,2.52-22.59,6.78-31.16c-1.63-0.5-3.19-0.9-4.76-1.35c-6.73-1.79-13.06-3.53-18.49-10.54
		c-3.03-3.98-5.1-8.74-6.11-14.07c-0.28-1.57,0.73-3.03,2.24-3.31c1.52-0.28,2.97,0.73,3.25,2.24c0.84,4.48,2.58,8.41,5.05,11.66
		c4.31,5.55,9.25,6.89,15.52,8.58c1.91,0.5,3.98,1.06,6.11,1.79c3.19,1.06,6.67,2.52,10.2,4.82c9.03,5.77,16.09,15.13,19.84,25.5
		C537.79,651.2,538.86,657.53,538.52,663.64z" class="st9"></path>
</g>
<g>
	<path d="M538.52,663.64c-0.22,4.71-0.78,14.57-8.52,20.63c-3.75,2.97-8.58,4.43-13.85,4.43
		c-1.06,0-2.19-0.06-3.31-0.17c-3.25-0.39-6.22-1.96-8.41-4.37c-0.45-2.07-0.67-4.26-0.67-6.45c0-17.71,14.24-32.17,31.89-32.45
		C537.79,651.2,538.86,657.53,538.52,663.64z" class="st7"></path>
</g>
<g>
	<path d="M516.15,691.5c-1.18,0-2.38-0.07-3.58-0.2c-5.73-0.62-10.81-4.39-13.25-9.83l-0.67-1.58
		c-3.55-8.54-5.43-18.51-5.43-28.81c0-10.62,1.95-20.7,5.67-29.37l-1.62-0.45c-6.79-1.81-13.87-3.69-19.94-11.51
		c-3.32-4.37-5.56-9.5-6.64-15.27c-0.56-3.08,1.46-6.02,4.48-6.58c2.97-0.57,5.96,1.44,6.51,4.48c0.75,3.98,2.27,7.5,4.53,10.47
		c3.74,4.82,8.05,5.97,14.01,7.56c1.96,0.52,4.09,1.1,6.29,1.86c4.04,1.34,7.59,3.02,10.82,5.11c15.06,9.62,24.93,28.69,23.97,46.39
		c-0.22,4.71-0.75,15.77-9.58,22.69C527.56,689.76,522.17,691.5,516.15,691.5z M506.73,618.31l-1.42,2.86
		c-4.25,8.55-6.49,18.89-6.49,29.92c0,9.57,1.73,18.78,5,26.67l0.62,1.45c1.62,3.61,4.96,6.12,8.72,6.53
		c5.87,0.65,11.26-0.64,15.08-3.66c6.82-5.34,7.25-14.27,7.45-18.56c0.84-15.8-7.96-32.81-21.41-41.39l-0.02-0.02
		C511.96,620.6,509.53,619.37,506.73,618.31z M477.97,599.59c0.99,2.46,2.26,4.71,3.82,6.76c4.89,6.31,10.49,7.8,16.98,9.52
		l1.74,0.48c1.03,0.28,2.07,0.57,3.13,0.9l0.63,0.19c-1.92-0.63-3.77-1.13-5.48-1.59c-6.5-1.74-12.1-3.24-17.02-9.57
		C480.21,604.24,478.94,602,477.97,599.59z" class="st5"></path>
</g>
<linearGradient gradientTransform="matrix(1 0 0 -1 0 1531.8809)" y2="958.189" x2="469.2606" y1="1008.5376" x1="556.4671" gradientUnits="userSpaceOnUse" id="SVGID_1_">
	<stop style="stop-color:#DD5543;stop-opacity:0" offset="0.2403"></stop>
	<stop style="stop-color:#DD5543;stop-opacity:0.6" offset="1"></stop>
</linearGradient>
<path d="M518.4,503.11l-10.7,2.07c-26.84,5.18-44.39,31.14-39.21,57.97l1.74,9.02c3.05,15.77,18.3,26.09,34.07,23.04
	l11.2-2.16c29.19-5.64,48.28-33.88,42.63-63.07v0C554.58,511.58,536.79,499.56,518.4,503.11z" class="st10"></path>
</svg>
